<?xml version="1.0" standalone="no"?>
<!DOCTYPE svg PUBLIC "-//W3C//DTD SVG 1.1//EN" "http://www.w3.org/Graphics/SVG/1.1/DTD/svg11.dtd">
<svg t="1646809996331" class="icon" viewBox="0 0 1024 1024" version="1.1" xmlns="http://www.w3.org/2000/svg" p-id="2330" xmlns:xlink="http://www.w3.org/1999/xlink" width="200" height="200">
<defs><style type="text/css"></style></defs>
<path d="M509.44 860.16m-47.104 0a47.104 47.104 0 1 0 94.208 0 47.104 47.104 0 1 0-94.208 0Z" fill="currentColor" p-id="2331"></path>
<path d="M998.4 324.608A785.92 785.92 0 0 0 512 153.6a38.4 38.4 0 0 0 0 76.8 710.144 710.144 0 0 1 441.344 153.6 38.4 38.4 0 0 0 47.104-60.416z" fill="currentColor" p-id="2332"></path>
<path d="M512 358.4a603.136 603.136 0 0 0-63.488 3.584l-177.152-307.2a38.4 38.4 0 0 0-66.56 40.96l57.856 102.4a779.264 779.264 0 0 0-73.728 28.16A795.136 795.136 0 0 0 25.6 320.512a38.4 38.4 0 1 0 47.104 60.928 716.8 716.8 0 0 1 145.408-87.04 705.536 705.536 0 0 1 81.408-30.208l66.048 114.176a585.216 585.216 0 0 0-225.28 112.64 38.4 38.4 0 1 0 48.128 59.904 506.88 506.88 0 0 1 218.112-102.4l77.824 135.168a364.544 364.544 0 0 0-204.8 76.8 38.4 38.4 0 1 0 47.616 60.416 292.864 292.864 0 0 1 199.68-59.904l176.128 307.2a38.4 38.4 0 1 0 66.56-38.4l-139.264-241.152a279.552 279.552 0 0 1 56.832 33.28 38.4 38.4 0 1 0 47.104-60.416 366.08 366.08 0 0 0-161.28-71.68L488.96 438.784h20.48a507.392 507.392 0 0 1 321.024 113.152 38.4 38.4 0 1 0 48.128-59.904A590.848 590.848 0 0 0 512 358.4z" fill="currentColor" p-id="2333"></path>
</svg>